<?xml version="1.0" encoding="UTF-8"?>
<svg version="1.1" xmlns="http://www.w3.org/2000/svg" width="699" height="699">
<path d="M0 0 C230.67 0 461.34 0 699 0 C699 230.67 699 461.34 699 699 C468.33 699 237.66 699 0 699 C0 468.33 0 237.66 0 0 Z " fill="#000000" transform="translate(0,0)"/>
<path d="M0 0 C3.93161151 1.7021001 7.42063706 3.95502824 11 6.296875 C12.71092846 7.39714947 14.42186633 8.49740931 16.1328125 9.59765625 C17.46940918 10.46318115 17.46940918 10.46318115 18.83300781 11.34619141 C23.33053219 14.25147952 27.85472998 17.11466336 32.375 19.984375 C34.22809232 21.16370473 36.08095505 22.3433953 37.93359375 23.5234375 C38.85897949 24.11286133 39.78436523 24.70228516 40.73779297 25.30957031 C43.58724078 27.12513896 46.43621529 28.94144864 49.28515625 30.7578125 C50.23221436 31.36125488 51.17927246 31.96469727 52.1550293 32.58642578 C53.92119906 33.71180306 55.68702751 34.83771631 57.45239258 35.96435547 C58.2802124 36.49174316 59.10803223 37.01913086 59.9609375 37.5625 C60.76672745 38.10471191 61.5725174 38.64692383 62.40272522 39.20556641 C64.83483161 40.67094459 66.95863958 41.72046805 69.55459595 42.77835083 C74.20187822 44.85350218 78.35016548 47.06939208 81.5625 51.109375 C84.45325302 58.81960933 83.4223317 67.636792 83.125 75.7109375 C83.10144696 77.84522833 83.08514158 79.97961174 83.07617188 82.11401367 C82.99260987 89.9888857 82.7692224 97.86177328 82.5625 105.734375 C82.2325 123.348125 81.9025 140.961875 81.5625 159.109375 C45.9225 159.109375 10.2825 159.109375 -26.4375 159.109375 C-26.9325 130.399375 -26.9325 130.399375 -27.4375 101.109375 C-41.64327585 93.57865122 -41.64327585 93.57865122 -56.0625 86.546875 C-65.00458921 82.32631641 -73.77897423 77.88319095 -82.4375 73.109375 C-83.85028912 65.83598097 -84.90568357 58.24108016 -82.4375 51.109375 C-77.52517338 45.2171719 -70.14199402 42.01472239 -63.39990234 38.63574219 C-59.06194038 36.40062284 -55.02148589 33.7719672 -50.9375 31.109375 C-49.38954148 30.12910501 -47.84003969 29.1512681 -46.2890625 28.17578125 C-41.90213852 25.40485498 -37.51945919 22.62730343 -33.14038086 19.84399414 C-31.26987509 18.65528716 -29.39830859 17.4682475 -27.52563477 16.28295898 C-23.12510358 13.49065249 -18.75504969 10.6672453 -14.44140625 7.7421875 C-13.66748535 7.22277588 -12.89356445 6.70336426 -12.09619141 6.16821289 C-10.65631412 5.19821862 -9.224379 4.21628703 -7.80224609 3.22045898 C-5.20098455 1.47652852 -3.17733328 0.14257265 0 0 Z " fill="#FEFEFE" transform="translate(379.4375,270.890625)"/>
<path d="M0 0 C0 28.38 0 56.76 0 86 C-18.48 86 -36.96 86 -56 86 C-56 66.86 -56 47.72 -56 28 C-34.09595342 16.47155443 -34.09595342 16.47155443 -27.3046875 13.0859375 C-26.14998459 12.5078685 -26.14998459 12.5078685 -24.97195435 11.91812134 C-23.39536589 11.12949493 -21.81829849 10.34182517 -20.24072266 9.55517578 C-17.81128971 8.34321718 -15.38410554 7.1268304 -12.95703125 5.91015625 C-11.40637867 5.13515917 -9.85560254 4.36040921 -8.3046875 3.5859375 C-7.58199677 3.22358002 -6.85930603 2.86122253 -6.11471558 2.48788452 C-1.11504439 0 -1.11504439 0 0 0 Z " fill="#FEFEFE" transform="translate(297,344)"/>
</svg>
